<?xml version="1.0" standalone="no"?>
<!DOCTYPE svg PUBLIC "-//W3C//DTD SVG 20010904//EN"
 "http://www.w3.org/TR/2001/REC-SVG-20010904/DTD/svg10.dtd">
<svg version="1.0" xmlns="http://www.w3.org/2000/svg"
 width="512.000000pt" height="512.000000pt" viewBox="0 0 512.000000 512.000000"
 preserveAspectRatio="xMidYMid meet">
<metadata>
Created by potrace 1.16, written by Peter Selinger 2001-2019
</metadata>
<g transform="translate(0.000000,512.000000) scale(0.100000,-0.100000)"
fill="#000000" stroke="none">
<path d="M1852 5076 c-91 -30 -124 -76 -138 -193 l-7 -63 -36 0 c-118 -2 -305
-81 -342 -146 -9 -16 -33 -56 -53 -88 -32 -53 -36 -67 -36 -128 0 -65 -1 -68
-29 -83 -50 -25 -81 -75 -81 -129 0 -61 20 -99 64 -120 46 -22 82 -20 134 7
83 42 94 115 27 181 l-33 34 26 25 c37 35 111 67 163 69 35 1 46 -3 69 -29 27
-30 27 -31 15 -99 -9 -47 -11 -85 -4 -123 5 -31 9 -57 9 -58 0 -2 -6 -3 -14
-3 -8 0 -45 -16 -83 -36 -74 -39 -145 -102 -163 -143 -6 -14 -38 -44 -71 -66
-70 -47 -171 -171 -202 -248 -17 -42 -21 -75 -21 -167 -1 -108 1 -119 30 -180
20 -42 53 -88 94 -129 l63 -64 -6 -148 c-6 -138 -5 -149 12 -159 35 -18 40 6
31 145 -5 72 -9 136 -10 143 0 9 24 12 86 12 72 0 96 4 145 26 32 14 63 24 70
22 9 -3 12 -30 11 -93 -1 -83 -3 -90 -33 -128 -39 -49 -69 -125 -69 -177 0
-22 5 -70 12 -108 14 -84 7 -115 -38 -160 -35 -35 -35 -35 -104 -29 -40 3 -72
2 -75 -4 -12 -19 8 -51 49 -77 23 -15 57 -44 75 -65 30 -33 32 -41 27 -80 -20
-140 -19 -161 10 -218 27 -50 29 -61 26 -157 -2 -96 -1 -102 18 -102 11 0 20
-4 20 -10 0 -15 -28 -26 -112 -44 -71 -16 -78 -19 -78 -42 0 -21 4 -24 38 -24
56 0 79 -21 92 -85 9 -44 9 -74 -3 -143 -8 -48 -16 -94 -18 -102 -3 -13 13
-15 100 -18 l104 -3 -6 -205 c-4 -168 -2 -214 10 -250 8 -24 19 -44 23 -44 20
0 25 34 25 176 0 136 2 154 19 173 25 28 53 23 80 -12 19 -26 21 -42 21 -190
0 -89 4 -168 9 -175 4 -8 22 -20 39 -27 l30 -12 -2 -173 c-1 -95 -4 -176 -7
-181 -3 -5 11 -9 30 -9 l36 0 -7 176 -6 175 24 -5 c13 -3 50 -8 82 -11 l57 -6
0 -170 c0 -172 5 -199 39 -199 14 0 14 -1 15 195 l1 170 65 3 c87 3 110 9 111
30 0 13 2 12 9 -5 5 -13 6 -124 2 -260 -4 -131 -6 -248 -4 -260 5 -27 40 -41
54 -22 5 8 8 93 6 189 l-3 175 40 0 40 0 11 -55 c6 -30 20 -83 32 -118 19 -52
22 -85 22 -202 l0 -140 29 0 c17 0 32 4 35 8 2 4 12 46 20 92 33 173 38 196
57 238 15 35 23 43 41 40 22 -3 23 -6 28 -153 5 -140 6 -150 24 -150 30 0 33
33 22 224 l-9 173 24 19 24 19 -22 0 c-21 0 -23 5 -23 46 0 64 32 94 99 94 26
0 52 -5 59 -12 9 -9 12 -70 12 -215 0 -115 4 -203 9 -203 5 0 7 -8 4 -19 -3
-12 2 -20 16 -24 31 -8 44 43 31 129 -5 38 -10 101 -10 139 0 39 -5 76 -11 82
-16 16 -15 112 2 128 16 16 238 75 281 75 l29 0 -2 -137 c-2 -76 0 -144 4
-151 10 -14 43 -16 52 -2 3 5 1 49 -5 97 -7 48 -12 206 -12 349 0 335 -1 333
137 334 33 0 78 7 101 15 23 7 77 17 120 21 43 4 90 11 103 16 l25 9 -42 37
c-36 31 -44 45 -50 87 -5 28 -5 77 -2 110 4 54 8 61 39 82 19 13 45 23 57 23
21 0 24 5 24 41 l0 41 -99 -7 c-78 -6 -111 -4 -156 9 -48 15 -56 20 -53 39 3
19 9 22 51 22 32 0 46 4 43 12 -3 6 -10 31 -16 53 -10 38 -9 45 10 65 12 12
51 38 86 56 65 33 66 33 59 68 -3 20 -15 60 -26 89 -10 29 -19 70 -19 92 0 45
25 75 128 152 37 29 62 55 62 67 0 21 -26 36 -35 21 -4 -6 -34 -10 -68 -10
-74 0 -113 20 -147 75 -19 31 -22 45 -16 93 20 172 21 166 -11 234 -17 35 -45
81 -63 102 -27 30 -31 39 -19 47 8 5 20 7 27 4 14 -5 16 79 3 138 l-9 38 26
-17 c59 -39 90 -49 165 -52 l77 -4 0 -144 c0 -122 2 -146 16 -151 8 -3 19 -2
23 3 5 5 6 72 3 149 -3 84 -8 132 -13 120 -7 -18 -8 -18 -8 -2 -1 10 11 28 25
40 131 109 172 176 181 298 12 162 -36 280 -163 406 -46 45 -92 84 -103 88
-12 3 -21 14 -21 24 0 42 -149 159 -236 185 -33 10 -64 19 -71 21 -9 3 -6 22
12 70 30 79 30 79 5 72 -17 -4 -19 -2 -14 21 26 106 89 128 200 72 32 -16 72
-40 89 -54 l29 -23 -37 -36 c-41 -38 -42 -55 -8 -127 22 -48 96 -85 148 -75
53 10 113 72 113 116 0 44 -31 95 -74 120 -29 17 -34 26 -40 72 -11 85 -48
146 -153 253 -121 121 -151 135 -311 142 -91 4 -109 7 -96 17 25 18 30 104 10
144 -22 43 -100 91 -145 91 -43 0 -148 -35 -182 -61 -18 -13 -21 -21 -13 -29
16 -16 139 10 139 30 0 24 56 34 97 17 45 -19 73 -59 72 -106 0 -43 -61 -168
-111 -229 -55 -67 -56 -33 -2 71 61 116 65 164 18 208 -39 36 -74 41 -41 6 27
-29 29 -86 5 -115 -10 -12 -45 -36 -78 -55 -33 -19 -75 -43 -93 -53 l-32 -19
-27 35 c-49 63 -147 162 -184 185 -72 46 -208 62 -378 45 -165 -17 -289 -66
-355 -139 -11 -12 -25 -21 -32 -21 -21 0 -126 103 -141 137 -18 45 -17 60 12
88 30 30 67 32 118 5 44 -24 54 -25 37 -5 -10 12 -10 15 3 15 33 0 26 20 -15
44 -56 32 -103 39 -156 22z m666 -227 c70 -34 107 -77 148 -168 28 -63 28 -62
11 -55 -8 3 -33 34 -57 70 -76 115 -150 156 -280 156 -87 0 -163 -22 -231 -67
l-54 -35 40 35 c85 76 227 122 320 103 22 -5 68 -22 103 -39z m239 -6 c21 -11
69 -55 107 -99 37 -43 75 -82 85 -86 14 -6 14 -7 -3 -7 -17 -1 -17 -2 -2 -26
22 -33 46 -129 46 -183 0 -63 -16 -43 -24 29 -6 58 -50 178 -61 167 -3 -3 2
-32 11 -64 8 -32 18 -99 21 -149 4 -88 4 -89 -12 -60 -19 35 -28 42 -75 55
-23 6 -36 6 -41 -1 -3 -6 -9 18 -12 53 -6 63 -40 175 -72 239 -9 19 -37 59
-61 91 -24 31 -44 59 -44 62 0 12 102 -3 137 -21z m834 -227 c148 -45 233
-123 245 -223 l6 -48 -25 50 c-14 28 -32 59 -41 70 -16 19 -16 18 -1 -12 8
-18 14 -36 14 -40 -1 -4 5 -25 14 -45 25 -55 20 -59 -8 -10 -14 24 -22 49 -18
55 3 5 1 7 -4 4 -6 -4 -17 1 -24 10 -12 14 -12 16 1 8 8 -4 4 4 -9 18 -14 15
-29 27 -34 27 -5 0 1 -9 14 -20 13 -10 20 -19 16 -20 -13 0 -57 37 -51 42 10
11 -83 40 -151 48 l-70 9 77 -2 76 -2 -23 22 c-26 27 -124 63 -169 63 -30 1
-30 1 -11 16 25 19 62 15 176 -20z m-1820 -180 c30 -50 42 -94 34 -134 -4 -20
-10 -31 -12 -24 -3 6 -21 12 -41 12 -20 0 -46 7 -56 15 -10 8 -23 12 -27 9 -5
-3 -9 8 -9 24 0 16 -3 50 -6 76 -7 44 -6 46 19 46 14 0 28 4 31 9 11 17 48 -2
67 -33z m1779 20 c-73 -39 -98 -78 -125 -198 -15 -68 -19 -76 -32 -63 -8 8
-20 15 -27 15 -8 0 -24 15 -37 34 -14 21 -38 39 -61 47 -21 7 -38 19 -38 27 0
11 -3 12 -15 2 -17 -14 -31 -7 -38 20 -4 14 3 27 24 43 16 12 45 34 63 49 49
41 68 45 201 44 l120 -1 -35 -19z m-6 -402 c31 -15 70 -43 88 -61 l32 -33 -34
10 c-18 5 -36 14 -39 19 -3 4 -28 19 -56 32 -72 33 -152 35 -295 9 -189 -36
-171 1 25 49 22 6 81 9 131 7 77 -3 100 -8 148 -32z m-583 -89 c14 -8 40 -30
57 -50 33 -37 67 -95 56 -95 -3 0 8 -16 25 -35 38 -43 38 -49 5 -41 l-27 7 30
-25 c31 -26 62 -118 62 -181 0 -16 2 -63 4 -102 3 -42 1 -75 -4 -79 -6 -4 -6
-11 2 -20 6 -8 9 -24 6 -35 -3 -12 3 -48 14 -80 15 -44 18 -63 10 -78 -6 -11
-11 -35 -11 -54 0 -51 -29 -181 -56 -255 -33 -86 -57 -132 -118 -227 -79 -121
-214 -368 -232 -422 -9 -26 -35 -86 -57 -133 -38 -76 -46 -85 -77 -93 -49 -12
-123 -2 -176 25 -38 19 -50 32 -74 83 -15 33 -31 71 -35 85 -7 24 -7 24 12 8
35 -32 102 -48 199 -48 111 0 123 8 148 93 23 80 19 89 -12 27 l-28 -55 -94 0
c-69 0 -108 5 -145 19 -27 11 -44 21 -37 24 7 2 9 8 6 13 -4 7 8 7 33 2 167
-35 303 61 303 215 0 35 46 125 60 117 11 -7 22 24 13 38 -3 7 -3 9 2 5 4 -4
18 16 29 45 24 57 95 159 107 151 4 -2 3 -19 -2 -37 -5 -17 -9 -45 -9 -62 1
-26 2 -28 11 -12 6 11 12 24 14 30 1 7 12 32 23 57 12 25 22 59 22 76 0 41 24
74 42 56 10 -10 9 -24 -4 -75 -9 -34 -15 -63 -13 -65 11 -12 79 158 95 238 30
144 29 152 -25 178 -25 12 -61 22 -80 22 -20 0 -44 5 -54 12 -15 9 -28 6 -72
-15 -83 -42 -199 -36 -199 10 0 9 15 13 46 13 42 0 50 4 85 42 l38 42 48 -23
c26 -12 55 -23 63 -24 8 -2 21 -6 29 -11 8 -5 16 -4 20 3 5 7 15 9 26 5 12 -5
16 -4 12 3 -4 6 4 14 18 17 25 6 34 29 15 41 -6 3 -6 15 0 30 5 14 5 38 -2 62
-13 48 -24 61 -40 45 -17 -17 -68 43 -68 81 0 56 -78 26 -185 -73 -78 -72
-164 -106 -204 -81 -10 6 -21 0 -38 -20 -28 -32 -47 -38 -39 -11 4 11 -2 22
-15 30 -18 11 -24 11 -38 -2 -43 -39 -112 -7 -236 107 -108 100 -117 100 -167
-5 -36 -75 -59 -95 -72 -62 -17 44 2 113 39 144 32 27 149 22 310 -11 176 -36
221 -35 372 12 83 26 218 46 333 49 11 0 9 4 -5 12 -37 22 -173 11 -301 -24
-100 -27 -137 -33 -229 -33 -97 0 -128 5 -260 40 l-149 39 46 15 c45 14 53 13
155 -15 148 -40 245 -39 408 4 133 35 191 39 280 17 76 -18 76 -18 68 0 -3 9
-24 25 -46 37 -56 28 -135 20 -305 -32 -173 -52 -224 -52 -392 -5 -68 19 -134
42 -148 51 -44 29 -132 -3 -132 -47 0 -15 -45 -49 -65 -49 -16 0 -2 61 20 84
14 15 22 33 19 39 -4 7 -4 9 0 5 7 -6 73 57 171 162 37 40 41 42 84 37 40 -4
52 -12 110 -75 71 -76 95 -92 136 -92 30 0 75 21 95 45 27 32 136 109 180 127
49 20 114 17 161 -7z m624 -51 c179 -47 375 -202 408 -326 8 -26 10 -78 6
-133 -3 -61 -6 -73 -7 -38 -3 72 -21 149 -38 164 -17 14 -19 33 -1 23 7 -4 9
-3 4 2 -5 5 -12 9 -15 9 -12 1 -72 63 -72 74 0 6 -4 11 -10 11 -13 0 -13 -6 1
-33 11 -22 11 -22 -10 1 -28 29 -37 28 -18 -2 17 -25 13 -36 -11 -36 -12 0
-12 3 -2 15 9 10 9 15 1 15 -6 0 -11 7 -11 15 0 9 -10 20 -22 25 -18 8 -15 9
17 6 36 -4 41 -2 41 16 0 24 -53 66 -136 108 -72 37 -114 47 -236 59 -82 9
-112 8 -158 -4 -31 -8 -67 -15 -79 -14 -18 0 -15 4 13 16 118 53 206 60 335
27z m-102 -496 c25 -33 33 -114 17 -164 -7 -22 -34 -70 -60 -109 -26 -38 -57
-90 -70 -115 -38 -75 -61 -100 -92 -100 -18 0 -31 7 -39 21 -16 32 -5 107 20
132 l21 21 0 -22 c0 -22 2 -21 31 10 36 39 48 65 63 134 14 63 30 72 34 19 5
-57 17 -62 36 -15 20 50 20 80 2 125 -18 43 -51 47 -94 10 -49 -41 -66 -32
-33 19 46 69 126 86 164 34z m-870 -98 c7 0 13 -16 14 -36 1 -20 5 -44 8 -52
5 -14 7 -14 15 -2 7 11 14 9 35 -12 33 -33 79 -55 133 -64 34 -5 53 -1 108 25
36 17 77 31 91 31 37 0 81 -30 98 -66 18 -38 21 -141 4 -111 -10 16 -13 17
-27 4 -29 -25 -89 -39 -170 -39 -87 1 -119 10 -171 51 -20 16 -50 35 -67 44
-31 16 -32 16 -38 -6 -3 -12 -6 -31 -6 -41 0 -18 1 -18 18 -3 10 10 23 17 29
17 17 0 64 -61 61 -78 -3 -17 -72 -37 -95 -28 -6 3 -15 -4 -18 -14 -3 -11 -20
-29 -36 -41 -37 -26 -67 -20 -115 24 -31 29 -33 35 -26 62 5 17 15 87 22 155
7 69 18 128 24 132 8 5 7 13 -1 27 -12 18 -9 20 30 24 23 2 48 2 55 0 8 -2 19
-3 25 -3z m-313 -49 c16 -11 40 -21 54 -21 14 0 28 -5 32 -12 9 -14 -38 -56
-73 -64 -30 -8 -117 11 -151 33 -13 8 -44 17 -70 20 -41 5 -52 2 -79 -21 -17
-14 -36 -26 -41 -26 -16 0 -2 73 16 87 19 15 124 7 166 -13 43 -20 52 -17 28
9 -12 13 -19 27 -15 31 14 15 104 -1 133 -23z m140 -123 c0 -33 -4 -39 -27
-44 -16 -4 -56 -34 -90 -67 l-63 -60 -64 5 c-64 6 -126 32 -126 54 0 7 -7 14
-14 17 -23 9 -48 66 -42 93 4 13 20 31 37 40 36 18 76 14 141 -16 25 -11 65
-20 96 -20 46 0 57 4 90 35 33 31 38 33 50 18 6 -9 12 -34 12 -55z m-384 -262
c12 -21 12 -26 2 -20 -8 5 -8 1 3 -12 8 -10 24 -38 34 -62 10 -24 24 -46 31
-50 7 -4 19 -32 27 -62 12 -45 15 -49 17 -25 1 23 11 5 42 -75 36 -96 72 -220
64 -227 -16 -17 -51 37 -131 201 -93 190 -120 261 -106 271 11 6 1 55 -10 55
-5 0 -9 7 -9 15 0 8 -4 15 -9 15 -5 0 -12 12 -15 28 -4 15 -9 36 -12 47 -6 21
46 -49 72 -99z m258 76 c3 -5 7 -29 8 -53 3 -37 10 -51 46 -87 23 -24 63 -51
87 -62 25 -11 45 -22 45 -26 0 -13 -116 5 -172 26 -32 13 -75 38 -98 57 -47
40 -45 49 23 113 44 41 52 46 61 32z m525 -36 c18 -13 46 -30 62 -36 39 -16
29 -28 -74 -86 -91 -50 -153 -73 -212 -77 -51 -3 -55 21 -7 44 74 38 112 70
137 118 21 43 34 57 56 60 3 1 20 -10 38 -23z m555 -240 c58 -24 117 -86 153
-161 18 -38 33 -79 33 -90 0 -12 14 -58 30 -103 17 -46 30 -90 29 -100 0 -9
-11 13 -23 50 -24 68 -62 138 -75 138 -12 0 -92 62 -87 67 3 3 20 -5 38 -17
22 -15 15 -4 -23 32 -37 36 -79 64 -123 83 l-66 28 23 23 c14 14 38 24 62 26
l40 3 -30 17 c-37 21 -26 23 19 4z m-202 -259 c-4 -52 -2 -59 17 -64 28 -7 26
-17 -5 -38 l-26 -17 36 -37 c38 -39 45 -54 21 -45 -11 5 -13 -2 -8 -33 4 -21
12 -44 20 -51 15 -16 9 -32 -13 -32 -22 0 -16 -36 9 -49 l22 -11 -22 6 c-13 3
-23 1 -23 -5 0 -6 5 -11 10 -11 7 0 7 -7 0 -20 -6 -12 -10 -28 -8 -38 1 -9 -1
-22 -5 -29 -4 -7 1 -18 14 -26 20 -15 20 -15 -12 -22 -17 -4 -28 -10 -23 -14
25 -18 32 -70 19 -148 -8 -43 -18 -111 -23 -151 -19 -137 -142 -350 -296 -511
-141 -147 -220 -217 -268 -235 l-46 -18 -82 33 c-54 22 -93 46 -114 69 -48 53
-151 147 -142 130 12 -23 -40 39 -76 90 -17 25 -42 58 -55 74 -40 48 -103 184
-140 299 -19 60 -33 113 -31 119 2 6 19 -23 37 -63 48 -106 164 -353 167 -358
1 -1 7 0 13 3 6 4 6 18 1 36 -6 21 -5 28 2 24 7 -5 8 5 3 32 -5 21 -9 53 -9
69 -1 26 2 30 23 27 13 -1 69 -36 125 -77 107 -79 181 -114 257 -122 40 -5 57
0 120 33 40 21 116 69 168 106 99 71 131 83 131 48 0 -59 46 12 64 98 11 55
29 70 34 30 2 -20 -19 -94 -43 -151 -7 -17 -6 -17 11 -7 27 17 84 102 101 152
13 38 36 275 27 289 -2 3 -25 14 -51 24 -26 9 -58 28 -69 42 -21 24 -22 24
-52 9 -44 -23 -169 -32 -207 -15 -29 13 -28 13 40 20 39 4 123 11 187 15 65 4
115 11 112 16 -3 4 2 11 10 14 9 4 16 18 16 34 0 26 -3 28 -57 34 -54 6 -61
10 -115 67 -58 61 -63 80 -27 100 24 13 24 29 0 29 -10 0 -21 6 -24 14 -8 21
34 28 113 20 55 -5 68 -4 73 9 7 18 -29 33 -104 43 -27 4 -52 11 -56 17 -7 12
75 87 95 87 10 0 13 12 11 38 -3 64 -5 63 64 60 l62 -3 -3 -58z m-1077 -248
c12 -19 7 -77 -10 -124 -15 -38 -21 -45 -39 -39 -12 3 -28 7 -36 10 -11 3 -16
19 -18 58 -2 49 0 55 25 72 50 34 68 40 78 23z m1325 -246 c6 -21 16 -48 22
-60 13 -26 -4 -78 -59 -184 -54 -104 -104 -139 -130 -89 -13 26 -17 80 -7 117
6 23 47 36 62 21 6 -6 14 3 21 23 6 18 14 30 17 27 3 -3 -6 -33 -20 -67 -31
-71 -32 -78 -9 -60 24 20 96 179 97 214 0 17 -3 45 -8 63 -11 44 0 40 14 -5z
m-790 -65 c0 -20 13 -27 89 -52 82 -26 93 -28 138 -17 26 7 65 23 85 37 21 13
46 24 55 24 26 -1 96 -34 112 -53 18 -23 17 -104 -4 -166 -18 -55 -24 -58 -58
-37 -12 7 -40 14 -62 15 -55 2 -143 26 -165 46 -12 11 -26 14 -40 10 -15 -5
-26 -1 -35 11 -9 13 -26 18 -59 19 -34 0 -46 4 -47 15 -1 18 -17 -17 -18 -40
-1 -11 2 -11 11 -2 29 29 77 5 93 -46 13 -43 -3 -67 -73 -115 -83 -58 -124
-63 -176 -23 -20 15 -36 31 -36 36 0 16 -43 33 -77 32 -26 -1 -33 3 -33 18 0
10 5 22 10 25 6 3 10 1 10 -5 0 -8 6 -7 21 1 17 9 19 13 8 19 -7 5 -17 6 -21
4 -21 -13 -5 18 17 32 28 18 53 13 95 -23 17 -13 30 -22 30 -18 0 20 -36 68
-75 100 -43 36 -52 55 -39 89 11 28 30 17 42 -23 7 -21 12 -45 12 -53 0 -9 6
-20 13 -26 10 -8 13 -2 14 31 3 70 14 126 26 134 14 8 72 20 110 22 22 1 27
-3 27 -21z m-498 -29 c58 -29 122 -40 183 -31 65 11 68 4 29 -63 -14 -25 -23
-49 -19 -55 3 -5 -3 -24 -15 -40 -19 -26 -27 -30 -71 -30 -44 0 -54 4 -76 30
-18 22 -33 30 -57 30 -39 0 -56 -15 -56 -52 0 -26 -2 -28 -20 -18 -11 6 -31
27 -45 48 -20 29 -25 49 -25 95 0 32 5 67 11 78 22 42 87 45 161 8z m700 -304
c44 -81 43 -82 -90 -147 -117 -58 -136 -63 -180 -52 -16 5 -22 13 -20 28 2 15
15 25 48 34 110 33 165 81 177 159 8 48 32 40 65 -22z m-515 -45 c5 0 20 -12
34 -26 27 -30 93 -63 126 -64 23 0 48 -33 38 -50 -15 -24 -123 1 -149 34 -6 8
-40 29 -76 48 -58 30 -65 37 -60 58 8 33 41 43 62 19 9 -10 20 -19 25 -19z"/>
<path d="M2815 1274 c-11 -9 -54 -32 -95 -52 -101 -49 -178 -50 -295 -4 -103
41 -117 41 -77 -1 24 -24 29 -36 21 -44 -32 -32 171 -85 242 -64 53 16 161 92
199 141 35 44 35 48 5 24z"/>
<path d="M3506 1014 c-3 -107 -4 -199 -1 -205 8 -12 42 -11 51 2 10 18 -18
378 -31 389 -9 7 -14 -38 -19 -186z"/>
</g>
</svg>
